<svg width="98" height="116" viewBox="0 0 98 116" fill="none" xmlns="http://www.w3.org/2000/svg">
<g id="Logo">
<ellipse id="Ellipse 1" cx="29" cy="49.5" rx="29" ry="28.5" fill="#49AEDA" fill-opacity="0.45"/>
<ellipse id="Ellipse 2" cx="59" cy="78" rx="39" ry="38" fill="#49AEDA" fill-opacity="0.6"/>
<ellipse id="Ellipse 3" cx="71.5" cy="31" rx="23.5" ry="22" fill="#49AEDA" fill-opacity="0.25"/>
<path id="R" d="M79.2 97L63.2 74.5C61.4 74.7 59.5333 74.8 57.6 74.8H38.8V97H31.4V27H57.6C66.5333 27 73.5333 29.1333 78.6 33.4C83.6667 37.6667 86.2 43.5333 86.2 51C86.2 56.4667 84.8 61.1 82 64.9C79.2667 68.6333 75.3333 71.3333 70.2 73L87.3 97H79.2ZM57.4 68.5C64.3333 68.5 69.6333 66.9667 73.3 63.9C76.9667 60.8333 78.8 56.5333 78.8 51C78.8 45.3333 76.9667 41 73.3 38C69.6333 34.9333 64.3333 33.4 57.4 33.4H38.8V68.5H57.4Z" fill="white"/>
</g>
</svg>
